<?xml version="1.0" encoding="UTF-8"?>
<svg version="1.1" xmlns="http://www.w3.org/2000/svg" width="1814" height="670">
<path d="M0 0 C0.99386719 0.70382813 1.98773438 1.40765625 3.01171875 2.1328125 C18.7346236 13.60128427 33.06134652 26.59335703 45 42 C45.42394043 42.54221191 45.84788086 43.08442383 46.28466797 43.64306641 C66.32700695 69.44107891 80.81391155 99.87875548 86.0144043 132.25048828 C87.14902112 138.46965978 89.26489666 142.1371736 93.34448242 146.94360352 C95.54224747 149.67355116 96.71139083 152.45979475 97.875 155.75 C98.26429688 156.81734375 98.65359375 157.8846875 99.0546875 158.984375 C100.81714578 164.60676258 101.15756942 169.84283375 101.17700195 175.71484375 C101.18357315 176.582267 101.19014435 177.44969025 101.19691467 178.34339905 C101.21658802 181.20810037 101.22829987 184.07274929 101.23828125 186.9375 C101.24235678 187.92065186 101.2464323 188.90380371 101.25063133 189.91674805 C101.27147133 195.12532336 101.28577939 200.33387252 101.29516602 205.54248047 C101.30619806 210.89403365 101.34056695 216.24516734 101.38033772 221.59657288 C101.40662366 225.7352978 101.41486866 229.8739248 101.41844749 234.01272583 C101.42328619 235.98368142 101.43482153 237.95463344 101.45348549 239.92550659 C101.59425532 255.78188088 100.29680734 269.07730003 90 282 C87.94433692 283.96421899 85.86997624 285.75258551 83.6015625 287.46484375 C81.73316978 289.25576653 81.38151252 290.47656719 81 293 C81.97839844 293.81791016 81.97839844 293.81791016 82.9765625 294.65234375 C95.52190919 305.47686855 100.62224702 316.56393879 102 333 C102.25581671 339.29063918 102.14177178 345.58830119 102.0586338 351.88182068 C102.01864003 355.0391067 101.99464771 358.19616268 101.97502136 361.3536377 C101.91752732 370.32261453 101.84058553 379.2912486 101.73266602 388.25976562 C101.66745127 393.77314136 101.62792132 399.28624193 101.60349083 404.79994202 C101.58943158 406.8759876 101.56610455 408.95199589 101.53248024 411.02781677 C101.12880563 436.30690305 106.83608646 465.00928482 122.5625 485.625 C127.00413943 489.95275124 131.62087762 491.35677418 137.67578125 492.1328125 C139.53493164 492.38224609 139.53493164 492.38224609 141.43164062 492.63671875 C142.71232422 492.79785156 143.99300781 492.95898438 145.3125 493.125 C147.87155435 493.45741063 150.43017822 493.79315846 152.98828125 494.1328125 C154.11790283 494.27605957 155.24752441 494.41930664 156.41137695 494.56689453 C159 495 159 495 160 496 C160.09304018 497.47354348 160.11746265 498.95150591 160.11352539 500.42797852 C160.11344986 501.36887833 160.11337433 502.30977814 160.11329651 503.27919006 C160.10813522 504.30209641 160.10297394 505.32500275 160.09765625 506.37890625 C160.09553383 507.941605 160.09553383 507.941605 160.09336853 509.53587341 C160.0877508 512.87811094 160.0751953 516.22028257 160.0625 519.5625 C160.05748728 521.82226466 160.05292398 524.08203037 160.04882812 526.34179688 C160.03777561 531.89455391 160.02102024 537.44727225 160 543 C157.18349901 543.03241279 154.36738127 543.05578786 151.55078125 543.07421875 C150.76610474 543.0841687 149.98142822 543.09411865 149.17297363 543.10437012 C136.05713362 543.1684156 123.96916043 540.35884663 112 535 C110.71222656 534.44699219 110.71222656 534.44699219 109.3984375 533.8828125 C92.57849392 526.14029879 80.0522653 512.8404276 71 497 C70.65727051 496.40509766 70.31454102 495.81019531 69.96142578 495.19726562 C63.1769239 483.18067541 58.91151185 470.19003318 55 457 C54.71592285 456.07380859 54.4318457 455.14761719 54.13916016 454.19335938 C49.84300578 438.94240118 50.87300617 422.43056616 50.95540047 406.72464752 C50.97304199 403.25219806 50.98316575 399.77979604 50.99131775 396.30731201 C51.0155721 386.44864441 51.05160119 376.59004233 51.09594727 366.73144531 C51.12270256 360.66887575 51.13975639 354.60634157 51.15081596 348.54372406 C51.15701835 346.24240544 51.16701439 343.94109377 51.18089485 341.63980865 C51.20007997 338.43593276 51.20700144 335.23224584 51.21118164 332.02832031 C51.21994324 331.08182617 51.22870483 330.13533203 51.23773193 329.16015625 C51.23580202 322.84851083 51.23580202 322.84851083 49 317 C45.94445384 314.80191223 42.75283039 314.53652242 39.0625 314.1875 C37.53302734 314.02314453 37.53302734 314.02314453 35.97265625 313.85546875 C32.33732039 314.03221964 30.89631609 314.81076577 28 317 C26.97366455 317.69424072 25.9473291 318.38848145 24.88989258 319.10375977 C19.81061609 324.2970778 21.19689823 332.4508325 21.265625 339.2265625 C21.25943473 340.85486163 21.25032498 342.48315198 21.23846436 344.11141968 C21.21372143 348.41140892 21.22293373 352.71062255 21.24102783 357.01062012 C21.2671566 364.62422382 21.23550889 372.23801643 21.203125 379.8515625 C21.19990738 380.67342293 21.19668976 381.49528336 21.19337463 382.34204865 C21.14227848 393.23456023 20.91877877 404.08786598 20.234375 414.9609375 C20.1735675 416.07779938 20.11276001 417.19466125 20.05010986 418.34536743 C19.60613251 424.37217513 18.90013615 430.14308888 15 435 C6.85503638 439.89407524 -5.45101715 438.07285797 -14.625 437.75 C-16.06528564 437.71072388 -16.06528564 437.71072388 -17.53466797 437.6706543 C-18.89809326 437.60938354 -18.89809326 437.60938354 -20.2890625 437.546875 C-21.10068848 437.51432617 -21.91231445 437.48177734 -22.74853516 437.44824219 C-25.67576605 436.86546232 -26.8943466 436.13910037 -29 434 C-29.4411059 431.42912603 -29.62177085 429.26251266 -29.63769531 426.68286133 C-29.65778656 425.94115189 -29.67787781 425.19944244 -29.69857788 424.43525696 C-29.76034788 421.98421324 -29.79433628 419.5336072 -29.828125 417.08203125 C-29.86554037 415.38234171 -29.90468663 413.68268945 -29.94549561 411.983078 C-30.04823743 407.51004 -30.12743338 403.03688147 -30.20178223 398.56329346 C-30.28180103 393.99827141 -30.38401318 389.43375273 -30.484375 384.86914062 C-30.67800977 375.91311378 -30.84678054 366.95680302 -31 358 C-32.02602829 358.413638 -33.05205658 358.827276 -34.10917664 359.25344849 C-35.47078912 359.80070329 -36.83242895 360.34789005 -38.1940918 360.89501953 C-38.86851067 361.16711746 -39.54292953 361.43921539 -40.23778534 361.71955872 C-45.03845052 363.64633454 -49.85538716 365.39040826 -54.8125 366.875 C-55.49119141 367.08640625 -56.16988281 367.2978125 -56.86914062 367.515625 C-61.71263697 369 -61.71263697 369 -64 369 C-63.96519531 369.82757813 -63.93039062 370.65515625 -63.89453125 371.5078125 C-63.56742593 385.93159934 -63.16445944 407.40100831 -72.68359375 419.0625 C-84.75894402 430.72481012 -103.83375807 431.44466992 -119.6640625 431.21875 C-134.08209542 430.78134286 -148.52004043 428.62036548 -162.6875 426 C-163.52966064 425.8462793 -164.37182129 425.69255859 -165.23950195 425.53417969 C-172.35011805 424.13508505 -178.66949915 422.18520611 -184 417 C-192.80358571 402.83310756 -193.96361872 388.72510734 -194.5625 372.4375 C-194.62727539 370.78137695 -194.62727539 370.78137695 -194.69335938 369.09179688 C-194.79844387 366.39462815 -194.90059413 363.69738297 -195 361 C-196.16273438 360.47792969 -197.32546875 359.95585937 -198.5234375 359.41796875 C-231.48543589 344.36549639 -260.37599171 322.20289944 -282 293 C-282.62261719 292.17242187 -283.24523437 291.34484375 -283.88671875 290.4921875 C-315.05544445 247.62610787 -328.42254954 192.05141595 -320.40844727 139.67163086 C-319.97293018 137.10665046 -319.49842903 134.55346761 -319 132 C-318.83371094 131.13938965 -318.66742188 130.2787793 -318.49609375 129.39208984 C-314.52257103 109.57230569 -307.66079776 90.74187263 -298 73 C-297.38640625 71.84628906 -296.7728125 70.69257812 -296.140625 69.50390625 C-288.12723059 54.91754163 -278.46829465 42.01701688 -267 30 C-265.82503051 28.63208816 -264.65738887 27.25781854 -263.5 25.875 C-251.50414681 12.15738906 -235.79706452 0.91463122 -220 -8 C-219.31631348 -8.38897461 -218.63262695 -8.77794922 -217.92822266 -9.17871094 C-151.04113326 -46.84956673 -63.22193987 -45.24138816 0 0 Z " fill="#F9F902" transform="translate(330,42)"/>
<path d="M0 0 C1.62172997 -0.00418212 3.243457 -0.00966442 4.8651787 -0.01631981 C9.28353583 -0.03067796 13.70170489 -0.02656011 18.12007189 -0.019153 C22.90001673 -0.01439961 27.67992215 -0.02695026 32.45985413 -0.03717041 C41.80930642 -0.05432125 51.1586914 -0.05520616 60.50815533 -0.04995751 C68.11114271 -0.04590772 75.71411027 -0.04736895 83.31709671 -0.05270576 C84.40129725 -0.05345419 85.48549779 -0.05420261 86.6025529 -0.05497371 C88.80546073 -0.05650527 91.00836855 -0.05804361 93.21127637 -0.05958868 C113.84556559 -0.07330022 134.47981684 -0.06788544 155.11410518 -0.05640347 C173.96853478 -0.04647203 192.82286624 -0.05941264 211.67728071 -0.08333766 C231.06430413 -0.1077521 250.45128189 -0.11733079 269.83832037 -0.11068493 C280.71175531 -0.10719799 291.58511479 -0.10939011 302.45853806 -0.12693596 C311.71446694 -0.14168724 320.97026721 -0.14225515 330.22619365 -0.12486505 C334.94317432 -0.11637687 339.65992554 -0.11415189 344.376894 -0.1295166 C348.70484455 -0.14343898 353.03237069 -0.13850458 357.36029716 -0.11927737 C358.91600651 -0.11554005 360.47175049 -0.11837293 362.02742879 -0.12888902 C375.5907461 -0.21396869 391.03700013 0.74969242 401.50430298 10.38768005 C410.37461897 19.3180659 412.62268494 32.07331088 412.63573074 44.23821354 C412.63778338 44.89380834 412.63983601 45.54940314 412.64195085 46.22486445 C412.64758755 48.41303107 412.64616774 50.60113408 412.64474487 52.78930664 C412.64733042 54.377544 412.65034411 55.96578071 412.65374827 57.55401653 C412.66179926 61.91218326 412.66360679 66.2703335 412.66434574 70.62850678 C412.66619962 75.33149475 412.67374866 80.03447423 412.68048096 84.73745728 C412.69405147 95.01864545 412.70008705 105.29982972 412.70449162 115.58102536 C412.70725631 122.00366311 412.71149408 128.42629935 412.71599579 134.84893608 C412.72818697 152.63984997 412.73848646 170.43076266 412.74187088 188.22168064 C412.74209045 189.35991087 412.74231001 190.4981411 412.74253623 191.67086315 C412.74275451 192.81177994 412.74297279 193.95269673 412.74319768 195.12818676 C412.74364114 197.44002632 412.74408771 199.75186588 412.74453735 202.06370544 C412.74475878 203.21045189 412.74498021 204.35719833 412.74520835 205.53869467 C412.74915506 224.11360691 412.76660589 242.68847988 412.78989688 261.26337696 C412.8136297 280.34505713 412.82607362 299.42671761 412.8272388 318.50841278 C412.82815449 329.21756023 412.83388017 339.92665653 412.85205841 350.63578987 C412.86748548 359.7561429 412.8725645 368.87642896 412.86432031 377.99679256 C412.86042299 382.64661291 412.86129839 387.29629851 412.87537766 391.94610214 C412.88817174 396.21062509 412.88687109 400.47491279 412.87478694 404.73943567 C412.87283943 406.2744609 412.87586415 407.80950311 412.88463131 409.34450454 C412.95668163 422.82302201 412.4012657 437.60230902 402.94180298 448.1259613 C391.6604562 458.64999545 376.81900452 458.68645314 362.27961731 458.64837646 C360.63857945 458.65140047 358.99754301 458.6552912 357.35650903 458.65996903 C352.86634965 458.67022566 348.37627034 458.66807317 343.88610446 458.66378844 C339.03594347 458.66131696 334.18580155 458.67034063 329.33564758 458.67782593 C319.84094755 458.69056336 310.3462758 458.6923678 300.85156866 458.69002566 C293.13214011 458.68824123 285.41272014 458.68999485 277.69329262 458.69425011 C276.0440644 458.69514289 276.0440644 458.69514289 274.36151845 458.69605371 C272.12776229 458.69726549 269.89400614 458.69847962 267.66024999 458.69969609 C246.72038881 458.71056801 225.78054374 458.70841081 204.84068165 458.70231124 C185.69622806 458.69714277 166.55182537 458.7083963 147.40738185 458.72740946 C127.73687182 458.74679489 108.06638586 458.75504259 88.39586622 458.75128621 C77.3575999 458.74937519 66.3193769 458.75185206 55.28111839 458.76600075 C45.88375993 458.77792451 36.48647145 458.77930826 27.08911201 458.76721058 C22.29763104 458.76132883 17.50627799 458.76020299 12.7148056 458.77221298 C8.3221554 458.78309505 3.92973958 458.77994089 -0.46289977 458.7659513 C-2.04559412 458.76331075 -3.62830698 458.76565056 -5.21098313 458.77368716 C-18.62389966 458.83702796 -32.68511279 458.11175726 -43.23788452 448.8603363 C-54.84180309 436.59251195 -53.8020114 417.14659053 -53.74966431 401.37278748 C-53.75197561 399.82770485 -53.75515658 398.28262333 -53.7591188 396.73754406 C-53.76738356 392.54036424 -53.76337989 388.34327664 -53.75714636 384.14609671 C-53.7525884 379.60069278 -53.75962208 375.05530382 -53.7651062 370.50990295 C-53.77396641 361.62462267 -53.77209329 352.73937632 -53.76628092 343.85409474 C-53.76175111 336.628257 -53.76115722 329.40242872 -53.76332855 322.17658997 C-53.76363502 321.14539227 -53.76394148 320.11419457 -53.76425724 319.05174845 C-53.76489673 316.9564267 -53.76554516 314.86110494 -53.76620242 312.76578319 C-53.77189583 293.15061116 -53.76536336 273.53545787 -53.75460169 253.92028892 C-53.74566708 237.11546461 -53.7472194 220.31066793 -53.75643921 203.50584412 C-53.76715933 183.95745674 -53.7713466 164.40908575 -53.76521468 144.86069584 C-53.76457763 142.77338728 -53.76394889 140.68607871 -53.76332855 138.59877014 C-53.76302 137.5719641 -53.76271145 136.54515806 -53.76239355 135.48723668 C-53.76067183 128.27601773 -53.76357039 121.06480925 -53.76828766 113.85359192 C-53.77391588 105.05704438 -53.77233939 96.26053251 -53.76172617 87.46398902 C-53.7564955 82.98198597 -53.75436793 78.50004222 -53.76102448 74.0180397 C-53.76704045 69.90492628 -53.76361705 65.79192642 -53.75306937 61.67882311 C-53.75085903 60.20123487 -53.75191743 58.72363677 -53.75682095 57.24605501 C-53.86495959 21.91430516 -53.86495959 21.91430516 -42.26522827 9.8447113 C-30.52664479 0.17916685 -14.47659779 -0.06149278 0 0 Z M113.50430298 65.38768005 C112.69992798 66.16885193 111.89555298 66.9500238 111.06680298 67.75486755 C100.61300603 78.53534566 94.40184957 92.0420884 90.50430298 106.38768005 C90.2593811 107.2487738 90.01445923 108.10986755 89.76211548 108.99705505 C84.32087205 132.40185557 90.14583037 156.82949324 102.33242798 177.02830505 C107.14241727 184.66667281 113.15751298 191.2354311 119.61367798 197.5009613 C121.46908019 199.35253003 123.17715871 201.27021678 124.87930298 203.26268005 C131.0057123 210.36596558 137.70864333 216.90851309 144.91055298 222.9150238 C146.50430298 224.38768005 146.50430298 224.38768005 148.50430298 227.38768005 C148.1710526 230.58688366 147.52144138 233.33626484 146.50430298 236.38768005 C145.65944336 236.80872009 145.65944336 236.80872009 144.79751587 237.23826599 C141.59398338 238.84395437 139.31718869 241.2695688 136.81289673 243.77830505 C136.26754776 244.3193689 135.72219879 244.86043274 135.1603241 245.41789246 C134.00379943 246.56867783 132.84988174 247.72208829 131.69839478 248.87791443 C129.98057908 250.5988339 128.25006171 252.30614167 126.51797485 254.01268005 C104.12471563 276.27733593 88.46713608 301.00662214 88.06680298 333.32518005 C88.1966387 356.92485104 97.09658375 377.63598194 113.31680298 394.70018005 C131.52987448 412.03243218 156.8505371 422.97573397 182.1312561 422.36375427 C208.11703162 421.22701388 231.45157609 409.2508403 249.41445923 390.7197113 C266.92149475 371.18382306 271.43181745 347.87141712 270.6835022 322.48826599 C268.94343475 292.3808319 248.43549634 269.0863622 227.50430298 249.38768005 C226.07799299 248.12492669 224.64236272 246.87250097 223.19180298 245.63768005 C211.09074202 235.31315783 211.09074202 235.31315783 210.50430298 229.38768005 C211.94180298 226.76268005 211.94180298 226.76268005 213.50430298 224.38768005 C213.50430298 223.72768005 213.50430298 223.06768005 213.50430298 222.38768005 C214.0438562 222.17119812 214.58340942 221.95471619 215.13931274 221.73167419 C218.33482276 219.91570613 220.75920461 217.45685026 223.34414673 214.8837738 C224.18257111 214.05805374 224.18257111 214.05805374 225.03793335 213.21565247 C226.84696321 211.42641485 228.64586805 209.62755748 230.44180298 207.82518005 C231.05278839 207.21298615 231.6637738 206.60079224 232.29327393 205.970047 C255.69319828 182.44370948 270.7593932 159.66950332 270.82339478 125.49266052 C270.56332572 101.36160759 260.41183224 80.29520932 243.50430298 63.38768005 C242.76180298 62.64518005 242.01930298 61.90268005 241.25430298 61.13768005 C230.913498 51.40515772 218.8807785 45.60480977 205.50430298 41.38768005 C204.44340454 41.04607849 203.3825061 40.70447693 202.28945923 40.3525238 C170.09019389 31.79524068 136.65484114 42.30144894 113.50430298 65.38768005 Z " fill="#FEFEFE" transform="translate(708.4956970214844,96.61231994628906)"/>
<path d="M0 0 C11.52580199 10.20940329 10.85615179 33.0017707 12.78882217 47.18563271 C13.30601398 50.98113042 13.82882967 54.77581797 14.35299683 58.57035828 C15.36758656 65.92233879 16.37613956 73.2751366 17.38348389 80.62811279 C18.759679 90.67161286 20.13991091 100.71454636 21.52608871 110.75667381 C22.04149644 114.49999887 22.55249924 118.24390812 23.06326294 121.98786926 C23.37677854 124.26448201 23.69047876 126.54106935 24.00439453 128.81762695 C24.14569794 129.86220566 24.28700134 130.90678436 24.43258667 131.98301697 C24.56425232 132.93171661 24.69591797 133.88041626 24.83157349 134.85786438 C24.94474474 135.68458806 25.05791599 136.51131174 25.17451668 137.36308765 C25.4543428 139.4268367 25.4543428 139.4268367 26.5390625 141.36328125 C32.06197237 137.54360461 35.8843578 134.22840927 37.29418945 127.48291016 C37.6395859 125.14892996 37.94377453 122.80861928 38.21484375 120.46484375 C38.49584298 118.47214871 38.776902 116.47946153 39.05977726 114.48703194 C39.36144073 112.31861288 39.64519645 110.14840581 39.92584229 107.97717285 C40.5570663 103.14777327 41.27647731 98.33345097 42.00927734 93.51855469 C43.07160932 86.52123929 44.12003522 79.5222076 45.14648438 72.51953125 C45.27609999 71.63560574 45.4057156 70.75168022 45.53925896 69.84096909 C45.80244508 68.04542056 46.06554254 66.24985904 46.32855225 64.45428467 C47.38831698 57.2224995 48.45270328 49.99139409 49.51781654 42.76039505 C49.8834159 40.27478884 50.24739685 37.78895 50.61112976 35.30307007 C51.14801121 31.63834985 51.69562215 27.97536211 52.24901962 24.31310272 C52.5237993 22.46588853 52.78342132 20.61643812 53.04214478 18.76690674 C53.19879608 17.70896912 53.35544739 16.65103149 53.5168457 15.56103516 C53.70728203 14.21883408 53.70728203 14.21883408 53.90156555 12.84951782 C54.65830162 9.89824896 55.75800995 7.83154812 57.5390625 5.36328125 C64.14367999 1.91411955 70.38498741 1.90755532 77.7265625 1.98828125 C78.79326172 1.97667969 79.85996094 1.96507812 80.95898438 1.953125 C81.98958984 1.95699219 83.02019531 1.96085938 84.08203125 1.96484375 C85.01039795 1.96822754 85.93876465 1.97161133 86.89526367 1.97509766 C90.0829085 2.44313305 91.94508316 3.4749863 94.5390625 5.36328125 C99.48613955 12.78389683 96.00616721 24.89018833 94.859375 33.25390625 C94.68654999 34.55672546 94.51372498 35.85954468 94.33566284 37.20184326 C93.87914097 40.64261356 93.41410768 44.08217887 92.94714355 47.52154541 C92.4791246 50.97982 92.01918897 54.43916778 91.55859375 57.8984375 C90.87690395 63.01133201 90.19095898 68.12363476 89.50048828 73.23535156 C89.26679535 74.97878845 89.26679535 74.97878845 89.02838135 76.75744629 C88.68470043 79.29006215 88.33328173 81.82071149 87.9730835 84.35095215 C87.88024015 85.01546764 87.78739681 85.67998314 87.69174004 86.36463547 C87.43357229 88.21200058 87.17101794 90.05875116 86.90817261 91.90545654 C86.53311456 95.41900155 86.47572211 98.8326265 86.5390625 102.36328125 C87.452323 102.01547607 87.452323 102.01547607 88.3840332 101.66064453 C91.20296142 100.59344647 94.02713695 99.54083958 96.8515625 98.48828125 C98.28725586 97.94107422 98.28725586 97.94107422 99.75195312 97.3828125 C106.28407916 94.96350656 112.64743998 93.37345668 119.5390625 92.36328125 C119.5232312 91.42826782 119.5232312 91.42826782 119.50708008 90.47436523 C119.23315884 70.40360831 121.71847962 50.7751025 136.01953125 35.69140625 C150.72803103 22.10029638 167.64158999 22.20539329 186.52734375 22.16015625 C187.72884095 22.15591518 187.72884095 22.15591518 188.95461082 22.15158844 C193.18141372 22.13669905 197.40818329 22.12740105 201.63500977 22.12304688 C205.99058199 22.11753155 210.34584646 22.09341066 214.7013216 22.06507492 C218.06508797 22.04645262 221.42877944 22.04124349 224.792593 22.039711 C226.39893491 22.03669047 228.00527568 22.02868219 229.61156654 22.01552582 C231.85367215 21.99844953 234.09501377 22.0003473 236.3371582 22.00683594 C237.61049515 22.00319031 238.88383209 21.99954468 240.195755 21.99578857 C243.79334524 22.39123173 245.67593086 23.19094369 248.5390625 25.36328125 C252.85022362 33.98560349 251.76913471 50.39897303 249.26953125 59.55859375 C247.95451746 62.80745135 246.68283204 63.79139648 243.5390625 65.36328125 C234.72142728 67.48193744 225.93240718 67.6437199 216.91015625 67.63671875 C215.54442919 67.64530124 214.17871042 67.65530818 212.81300354 67.66665649 C207.07385809 67.71245007 201.33478175 67.73758542 195.59545898 67.74414062 C192.06063052 67.74914693 188.52635695 67.77332054 184.99171638 67.80946732 C183.00254154 67.82400041 181.01324562 67.8166318 179.02403259 67.80892944 C177.82170486 67.82219269 176.61937714 67.83545593 175.38061523 67.84912109 C174.32204819 67.85197113 173.26348114 67.85482117 172.1728363 67.85775757 C169.43418926 68.12975241 169.43418926 68.12975241 167.70594788 70.17959595 C166.03446078 73.30758254 166.01459839 76.09170607 165.8515625 79.61328125 C165.75294922 81.50820312 165.75294922 81.50820312 165.65234375 83.44140625 C165.61496094 84.405625 165.57757812 85.36984375 165.5390625 86.36328125 C166.61994141 86.31107422 166.61994141 86.31107422 167.72265625 86.2578125 C207.52586975 85.25437014 250.16176217 98.15181838 282.5390625 121.36328125 C283.17360352 121.8128418 283.80814453 122.26240234 284.46191406 122.72558594 C293.55926568 129.2136537 302.03561844 136.15433797 310.05712891 143.93261719 C311.46640441 145.29313686 312.89867518 146.62971768 314.33203125 147.96484375 C331.37275542 164.24328445 344.80766478 184.98662683 354.5390625 206.36328125 C354.98693115 207.33587891 354.98693115 207.33587891 355.44384766 208.328125 C372.58212941 246.06036385 378.11492027 290.65096525 369.5390625 331.36328125 C369.36745605 332.21696289 369.19584961 333.07064453 369.01904297 333.95019531 C362.07588991 367.89036261 346.69001144 400.43585166 323.5390625 426.36328125 C323.09965332 426.85618652 322.66024414 427.3490918 322.20751953 427.85693359 C319.03223309 431.4048805 315.80198149 434.89580618 312.5390625 438.36328125 C311.92289063 439.02199219 311.30671875 439.68070313 310.671875 440.359375 C275.45557672 476.83941604 222.58178033 496.89886267 172.5390625 498.36328125 C127.53555271 499.11865208 82.92380238 486.15353917 46.5390625 459.36328125 C45.6109375 458.68531494 45.6109375 458.68531494 44.6640625 457.99365234 C21.75206396 441.08741204 2.56938209 420.01422812 -11.42724609 395.19580078 C-12.10771424 393.9894725 -12.79537706 392.78716986 -13.49072266 391.58935547 C-26.35955108 369.39047258 -34.26444077 343.76809881 -37.4609375 318.36328125 C-37.5552002 317.6350415 -37.64946289 316.90680176 -37.74658203 316.15649414 C-38.62931383 308.51273157 -38.70425693 300.86319511 -38.7109375 293.17578125 C-38.71161224 292.47352417 -38.71228699 291.77126709 -38.71298218 291.04772949 C-38.6701352 262.78153621 -33.66424373 233.32794112 -20.75390625 207.89453125 C-20.06107544 206.52349243 -20.06107544 206.52349243 -19.35424805 205.12475586 C-18.45670441 203.38612875 -17.53160231 201.66131833 -16.57348633 199.95532227 C-14.07717599 195.17068742 -13.22595575 191.70256563 -13.74603271 186.29527283 C-13.8547747 185.14883741 -13.96351669 184.002402 -14.07555389 182.82122612 C-14.65396433 177.63130271 -15.31840337 172.46091812 -16.05566406 167.29125977 C-16.21358932 166.16046494 -16.37151459 165.0296701 -16.53422546 163.86460876 C-17.0529688 160.15660521 -17.57729706 156.44941395 -18.1015625 152.7421875 C-18.46969526 150.11658593 -18.8374779 147.49093776 -19.20477295 144.86521912 C-20.07401938 138.65602688 -20.94706405 132.4473757 -21.82175136 126.23894781 C-23.3683817 115.26060686 -24.90943741 104.28148281 -26.44818735 93.30203474 C-26.91415482 89.97739576 -27.38056145 86.65281969 -27.8480072 83.32838821 C-29.63387312 70.62241055 -31.41188823 57.91655641 -33.05273438 45.19091797 C-33.17006802 44.282933 -33.28740166 43.37494802 -33.40829086 42.43944836 C-33.93297368 38.36618946 -34.44983992 34.29218204 -34.95294189 30.21620178 C-35.12836938 28.83154183 -35.30388009 27.44689241 -35.47949219 26.06225586 C-35.69445343 24.31869057 -35.69445343 24.31869057 -35.91375732 22.53990173 C-36.46741107 19.32569937 -37.37619077 16.43367747 -38.4609375 13.36328125 C-39.06727965 9.46436019 -38.83560987 6.20629408 -37.2109375 2.55078125 C-28.83931977 -4.10846013 -9.29490736 -5.95774899 0 0 Z " fill="#01DAF6" transform="translate(1426.4609375,160.63671875)"/>
<path d="M0 0 C0.68368149 -0.00335861 1.36736298 -0.00671722 2.07176208 -0.01017761 C4.33350448 -0.01967574 6.59517248 -0.02163144 8.85693359 -0.02270508 C10.44477365 -0.02592303 12.03261342 -0.0292875 13.62045288 -0.03279114 C16.95775028 -0.03878281 20.29502182 -0.04063146 23.63232422 -0.04003906 C27.85668716 -0.03993848 32.08087803 -0.05348093 36.30520058 -0.07081127 C39.59315713 -0.08208416 42.88107443 -0.08395351 46.16904831 -0.08342934 C47.72276771 -0.08459083 49.27648877 -0.0889063 50.83018875 -0.0967617 C59.21162363 -0.13510556 67.46955903 0.13913299 75.80761719 1.03857422 C76.90875823 1.15572517 76.90875823 1.15572517 78.03214455 1.27524281 C86.36124004 2.26309603 94.99055924 4.63590882 102.13037109 9.14526367 C102.80712783 10.47350407 103.47245855 11.80758908 104.13037109 13.14526367 C105.21410729 14.47468314 106.32030603 15.78596456 107.44287109 17.08276367 C114.81964014 26.36917648 117.26898112 37.25905955 117.30737305 48.86010742 C117.31394424 49.72753067 117.32051544 50.59495392 117.32728577 51.48866272 C117.34695911 54.35336404 117.35867096 57.21801296 117.36865234 60.08276367 C117.37272787 61.06591553 117.3768034 62.04906738 117.38100243 63.06201172 C117.40184243 68.27058703 117.41615049 73.4791362 117.42553711 78.68774414 C117.43656915 84.03929732 117.47093805 89.39043102 117.51070881 94.74183655 C117.53699475 98.88056147 117.54523976 103.01918847 117.54881859 107.1579895 C117.55365728 109.12894509 117.56519262 111.09989711 117.58385658 113.07077026 C117.72462641 128.92714455 116.42717843 142.2225637 106.13037109 155.14526367 C104.07470802 157.10948266 102.00034733 158.89784918 99.73193359 160.61010742 C97.86354087 162.4010302 97.51188361 163.62183086 97.13037109 166.14526367 C97.78263672 166.69053711 98.43490234 167.23581055 99.10693359 167.79760742 C111.65228028 178.62213222 116.75261812 189.70920247 118.13037109 206.14526367 C118.3861878 212.43590285 118.27214287 218.73356486 118.1890049 225.02708435 C118.14901113 228.18437037 118.1250188 231.34142635 118.10539246 234.49890137 C118.04789841 243.46787821 117.97095662 252.43651227 117.86303711 261.4050293 C117.79782237 266.91840503 117.75829241 272.4315056 117.73386192 277.94520569 C117.71980267 280.02125128 117.69647565 282.09725956 117.66285133 284.17308044 C117.25917673 309.45216672 122.96645756 338.15454849 138.69287109 358.77026367 C143.13451052 363.09801491 147.75124872 364.50203785 153.80615234 365.27807617 C155.04558594 365.44436523 156.28501953 365.6106543 157.56201172 365.78198242 C158.84269531 365.94311523 160.12337891 366.10424805 161.44287109 366.27026367 C164.00192544 366.6026743 166.56054931 366.93842214 169.11865234 367.27807617 C170.24827393 367.42132324 171.37789551 367.56457031 172.54174805 367.7121582 C175.13037109 368.14526367 175.13037109 368.14526367 176.13037109 369.14526367 C176.22341127 370.61880715 176.24783374 372.09676958 176.24389648 373.57324219 C176.24382095 374.514142 176.24374542 375.45504181 176.2436676 376.42445374 C176.23850632 377.44736008 176.23334503 378.47026642 176.22802734 379.52416992 C176.22590492 381.08686867 176.22590492 381.08686867 176.22373962 382.68113708 C176.21812189 386.02337461 176.20556639 389.36554624 176.19287109 392.70776367 C176.18785838 394.96752833 176.18329508 397.22729404 176.17919922 399.48706055 C176.1681467 405.03981758 176.15139133 410.59253592 176.13037109 416.14526367 C173.3138701 416.17767646 170.49775237 416.20105153 167.68115234 416.21948242 C166.89647583 416.22943237 166.11179932 416.23938232 165.30334473 416.24963379 C152.18750471 416.31367927 140.09953152 413.5041103 128.13037109 408.14526367 C127.27185547 407.7765918 126.41333984 407.40791992 125.52880859 407.02807617 C108.70886501 399.28556246 96.1826364 385.98569127 87.13037109 370.14526367 C86.7876416 369.55036133 86.44491211 368.95545898 86.09179688 368.3425293 C79.30729499 356.32593908 75.04188294 343.33529685 71.13037109 330.14526367 C70.84629395 329.21907227 70.5622168 328.29288086 70.26953125 327.33862305 C65.97337687 312.08766485 67.00337727 295.57582983 67.08577156 279.86991119 C67.10341309 276.39746173 67.11353685 272.92505971 67.12168884 269.45257568 C67.14594319 259.59390808 67.18197228 249.735306 67.22631836 239.87670898 C67.25307366 233.81413943 67.27012748 227.75160524 67.28118706 221.68898773 C67.28738944 219.38766911 67.29738548 217.08635744 67.31126595 214.78507233 C67.33045106 211.58119643 67.33737253 208.37750951 67.34155273 205.17358398 C67.35469513 203.75384277 67.35469513 203.75384277 67.36810303 202.30541992 C67.36617311 195.9937745 67.36617311 195.9937745 65.13037109 190.14526367 C62.07482493 187.9471759 58.88320148 187.68178609 55.19287109 187.33276367 C54.17322266 187.22319336 53.15357422 187.11362305 52.10302734 187.00073242 C48.46769148 187.17748331 47.02668719 187.95602944 44.13037109 190.14526367 C42.59086792 191.18662476 42.59086792 191.18662476 41.02026367 192.24902344 C35.94098719 197.44234148 37.32726932 205.59609617 37.39599609 212.37182617 C37.38980583 214.0001253 37.38069608 215.62841565 37.36883545 217.25668335 C37.34409252 221.5566726 37.35330483 225.85588622 37.37139893 230.15588379 C37.3975277 237.76948749 37.36587999 245.3832801 37.33349609 252.99682617 C37.32866966 254.22961681 37.32866966 254.22961681 37.32374573 255.48731232 C37.27264957 266.3798239 37.04914986 277.23312966 36.36474609 288.10620117 C36.27353485 289.78149399 36.27353485 289.78149399 36.18048096 291.4906311 C35.7365036 297.5174388 35.03050724 303.28835255 31.13037109 308.14526367 C22.98540748 313.03933891 10.67935394 311.21812164 1.50537109 310.89526367 C0.06508545 310.85598755 0.06508545 310.85598755 -1.40429688 310.81591797 C-2.76772217 310.75464722 -2.76772217 310.75464722 -4.15869141 310.69213867 C-4.97031738 310.65958984 -5.78194336 310.62704102 -6.61816406 310.59350586 C-9.47588406 310.02456486 -10.76496314 309.16206211 -12.86962891 307.14526367 C-13.42405128 304.64522552 -13.42405128 304.64522552 -13.50137329 301.58508301 C-13.53990543 300.4148912 -13.57843758 299.2446994 -13.61813736 298.03904724 C-13.64006023 296.74056351 -13.66198311 295.44207977 -13.68457031 294.10424805 C-13.72135507 292.70528952 -13.75959633 291.30636866 -13.79916 289.90748596 C-13.90290284 286.01534713 -13.97914167 282.12308173 -14.04942656 278.23021126 C-14.09656221 275.71926051 -14.15077222 273.20855774 -14.20720291 270.69779968 C-15.29082998 222.18021498 -15.24473232 173.64339829 -15.23985314 125.11632633 C-15.24055777 114.77193401 -15.26403551 104.42767333 -15.2917217 94.083323 C-15.31780439 83.97136406 -15.32860663 73.85946463 -15.32732356 63.74747229 C-15.32681605 57.76634029 -15.33239707 51.78537313 -15.35367966 45.80427551 C-15.37295102 40.24812372 -15.3732637 34.69229801 -15.35864639 29.1361351 C-15.35655074 27.10311787 -15.36130398 25.07008045 -15.37336731 23.03709793 C-15.38874281 20.26844347 -15.37956708 17.50092867 -15.36410522 14.7322998 C-15.37439235 13.92781481 -15.38467948 13.12332982 -15.39527833 12.2944665 C-15.34856409 8.52206542 -15.01126668 6.36590665 -12.95251465 3.15878773 C-9.08503474 -0.57990215 -5.20843663 0.01609314 0 0 Z " fill="#FEFEFE" transform="translate(313.86962890625,168.854736328125)"/>
<path d="M0 0 C2.11031171 -0.00389702 4.22062266 -0.00823372 6.33093262 -0.01298523 C10.72129887 -0.02039077 15.11158459 -0.02019499 19.50195312 -0.01489258 C25.11481445 -0.00906544 30.72734926 -0.02613436 36.34015656 -0.04923725 C40.68454904 -0.06398443 45.02886267 -0.06484562 49.37327576 -0.06172752 C51.44323887 -0.06223892 53.5132066 -0.06744238 55.58314514 -0.07753944 C58.47296434 -0.08992366 61.36214362 -0.08310329 64.25195312 -0.0715332 C65.0957251 -0.07917694 65.93949707 -0.08682068 66.80883789 -0.09469604 C72.41623258 -0.0452612 76.60622337 0.94665044 81.71875 3.30078125 C86.77368562 9.49715395 85.90165366 17.47601445 85.90625 25.05078125 C85.91849609 26.0975 85.93074219 27.14421875 85.94335938 28.22265625 C85.95719284 35.60050233 85.86560485 42.82139581 81.90625 49.23828125 C75.62304741 55.1624437 66.04376461 54.44816636 57.88769531 54.44262695 C57.04439163 54.44610138 56.20108795 54.44957581 55.33222961 54.45315552 C53.51586809 54.46046218 51.69949793 54.46583441 49.88312531 54.46944618 C47.0080911 54.47665981 44.13322282 54.49235839 41.25823975 54.51078796 C33.08933644 54.56305816 24.92053221 54.61129595 16.75146484 54.62670898 C11.74297146 54.63677534 6.73490877 54.6660506 1.72658539 54.70802879 C-0.17917886 54.72034769 -2.08500382 54.72545843 -3.99080658 54.72323036 C-6.65026683 54.72088394 -9.30848133 54.74298745 -11.96777344 54.77075195 C-12.75433823 54.76415054 -13.54090302 54.75754913 -14.3513031 54.75074768 C-17.60189237 54.80657269 -19.92682573 55.0989145 -22.77047729 56.71855164 C-25.12700742 60.74635929 -24.82177624 64.56069221 -24.76708984 69.14648438 C-24.77088654 70.14526108 -24.77468323 71.14403778 -24.77859497 72.17308044 C-24.78600769 75.47638292 -24.76460719 78.77880686 -24.7421875 82.08203125 C-24.73980341 84.3760162 -24.73889768 86.67000313 -24.7394104 88.96398926 C-24.73628114 93.77250383 -24.71970576 98.58072052 -24.69287109 103.38916016 C-24.65889131 109.55649081 -24.65124247 115.72349399 -24.65276146 121.89090729 C-24.6522179 126.62806328 -24.64125289 131.36514752 -24.62675858 136.10227966 C-24.62038893 138.37649492 -24.61645129 140.65071832 -24.61497116 142.92494202 C-24.61064001 146.10179525 -24.59314261 149.27829971 -24.57177734 152.45507812 C-24.57268372 153.39753891 -24.57359009 154.33999969 -24.57452393 155.3110199 C-24.56599396 156.17739578 -24.55746399 157.04377167 -24.54867554 157.93640137 C-24.54532385 158.68707634 -24.54197216 159.43775131 -24.53851891 160.21117401 C-24.24028744 162.63349017 -23.55967082 164.22930612 -22.28125 166.30078125 C-18.00608603 168.83044944 -13.44820438 168.58729755 -8.62304688 168.57202148 C-7.76228043 168.57724823 -6.90151398 168.58247498 -6.0146637 168.58786011 C-4.15079058 168.59808002 -2.28688909 168.603877 -0.42298889 168.6057415 C2.52775359 168.6094095 5.47816131 168.62614717 8.42883301 168.64649963 C16.8162616 168.70187714 25.20373885 168.73262136 33.59130859 168.75708008 C38.72594597 168.77295442 43.86034425 168.80316904 48.99485779 168.84184456 C50.95004234 168.85349234 52.90526964 168.85942489 54.86048889 168.85952568 C57.59409571 168.85971773 60.32704256 168.87798332 63.06054688 168.90014648 C63.866931 168.89556931 64.67331512 168.89099213 65.50413513 168.88627625 C70.07983524 168.94525438 73.1028362 169.4197809 76.71875 172.30078125 C80.71272775 178.55307953 80.19833994 184.61488122 80.15625 191.80078125 C80.17623047 193.01121094 80.19621094 194.22164062 80.21679688 195.46875 C80.21404079 200.47930973 80.14153971 204.32846879 78.12890625 208.95703125 C73.56900161 213.39129832 68.8574204 214.64088618 62.59481812 214.65182495 C61.84552032 214.63789703 61.09622253 214.62396912 60.32421875 214.60961914 C59.51514069 214.60684464 58.70606262 214.60407013 57.87246704 214.60121155 C55.21677881 214.58899671 52.5617603 214.55593079 49.90625 214.5234375 C48.04973187 214.51275042 46.19320368 214.50369712 44.33666992 214.49620056 C39.45993601 214.47346904 34.58349058 214.4344504 29.70690918 214.39019775 C21.90254774 214.31989824 14.09819994 214.26462772 6.29360962 214.22784233 C3.57538276 214.21120758 0.85750591 214.18164711 -1.8605957 214.15113831 C-3.53596681 214.14067183 -5.21134118 214.1307117 -6.88671875 214.12133789 C-7.63601654 214.1094342 -8.38531433 214.09753052 -9.15731812 214.08526611 C-13.85769735 214.07471032 -17.92789044 214.47357607 -22.28125 216.30078125 C-25.34012352 220.57220642 -24.58419528 226.55037057 -24.58764648 231.61132812 C-24.59597 232.64765884 -24.60429352 233.68398956 -24.61286926 234.75172424 C-24.63694797 238.17436486 -24.64573763 241.59681495 -24.65234375 245.01953125 C-24.66130964 247.39937396 -24.67043148 249.77921608 -24.67970276 252.15905762 C-24.69618808 257.14560313 -24.70389242 262.13208152 -24.70678711 267.11865234 C-24.71217923 273.51136481 -24.7498963 279.90344791 -24.79553127 286.29598236 C-24.82525178 291.20988276 -24.83250954 296.12363043 -24.83351326 301.03761292 C-24.83772325 303.3947692 -24.85018851 305.75192563 -24.87103081 308.10899353 C-24.89784818 311.40321447 -24.89314829 314.69596049 -24.88061523 317.99023438 C-24.89544952 318.96493179 -24.91028381 319.93962921 -24.92556763 320.94386292 C-24.87846866 325.28520203 -24.67674522 327.67277806 -22.3250885 331.4069519 C-18.11836009 334.0243134 -14.84670809 333.98704908 -9.98046875 333.91259766 C-9.05142731 333.91826248 -8.12238586 333.92392731 -7.16519165 333.92976379 C-4.09929881 333.94325022 -1.03459095 333.9223317 2.03125 333.90234375 C4.16447764 333.90784369 6.29769999 333.91596807 8.4309082 333.92660522 C14.04492243 333.94949898 19.6585474 333.94526706 25.27258301 333.93280029 C34.25834406 333.91449838 43.24387719 333.92442483 52.22958374 333.95866013 C55.36783085 333.96476896 58.50559004 333.95149789 61.64379883 333.93667603 C63.56852342 333.93962395 65.4932471 333.94327859 67.41796875 333.94775391 C68.28980804 333.93846359 69.16164734 333.92917328 70.05990601 333.91960144 C74.77523649 333.95062606 77.89297992 334.23278491 81.71875 337.30078125 C86.83424326 344.24323639 85.90184123 352.30639052 85.90625 360.55078125 C85.91849609 361.74058594 85.93074219 362.93039062 85.94335938 364.15625 C85.95614431 371.86982526 85.86267089 379.19159955 82.21875 386.17578125 C76.09037599 391.38489915 67.66453696 391.74295596 59.93310547 391.6730957 C59.01124954 391.67674637 58.08939362 391.68039703 57.13960266 391.68415833 C54.12152097 391.69219854 51.10398764 391.67870176 48.0859375 391.6640625 C45.96379598 391.66354284 43.84165398 391.66406462 41.71951294 391.66557312 C37.279732 391.66548367 32.84013364 391.6551147 28.40039062 391.63696289 C22.75232156 391.61436048 17.10452076 391.61371968 11.45641899 391.62048054 C7.07394086 391.62384865 2.69152212 391.61713601 -1.69094467 391.6073513 C-3.77103233 391.60354154 -5.85112666 391.60233324 -7.93121719 391.60393715 C-30.11369878 391.60679572 -51.47564216 391.50431261 -68.39453125 375.2734375 C-78.63714447 364.6064599 -83.78197219 350.82419598 -83.64874268 336.17100525 C-83.65201152 335.20160855 -83.65528036 334.23221186 -83.65864825 333.23343951 C-83.66588415 330.01085047 -83.65181362 326.78872284 -83.63769531 323.56616211 C-83.63848694 321.24387536 -83.64058651 318.92158874 -83.64389038 316.5993042 C-83.64901612 310.30236345 -83.63549657 304.00558672 -83.61836338 297.70867229 C-83.60479722 291.75742983 -83.60457597 285.80619781 -83.60398683 279.85494215 C-83.60230018 268.03420638 -83.58651674 256.21353201 -83.5625 244.39282227 C-83.53936539 232.9976348 -83.52509182 221.60248616 -83.52148438 210.20727539 C-83.52126161 209.508695 -83.52103884 208.8101146 -83.52080932 208.0903651 C-83.52036662 206.68244667 -83.5199246 205.27452823 -83.51948325 203.86660979 C-83.51926369 203.17159008 -83.51904412 202.47657037 -83.5188179 201.76048946 C-83.51860192 201.06690871 -83.51838593 200.37332796 -83.5181634 199.65872961 C-83.51419845 188.05114748 -83.50150563 176.44357268 -83.48847103 164.83599782 C-83.48441534 160.9294781 -83.48146764 157.02295872 -83.47867584 153.11643791 C-83.41750428 79.98343216 -83.41750428 79.98343216 -80.96875 54.98828125 C-80.90533417 54.31961029 -80.84191833 53.65093933 -80.77658081 52.96200562 C-79.96282603 44.45788701 -78.94957846 36.00792629 -77.34375 27.61328125 C-77.19832764 26.83621826 -77.05290527 26.05915527 -76.90307617 25.25854492 C-75.68028221 19.54549116 -73.73049441 15.1534687 -69.00390625 11.578125 C-47.76380616 0.88010102 -23.30228088 -0.01811117 0 0 Z " fill="#FEFEFE" transform="translate(545.28125,130.69921875)"/>
<path d="M0 0 C1.45763204 0.00580364 2.91526972 0.01031123 4.37290955 0.0136261 C8.3172306 0.02664874 12.26117801 0.05883303 16.20534325 0.0953393 C20.34065644 0.13117908 24.47605064 0.1520272 28.6114502 0.17526245 C35.55504338 0.21675583 42.49845186 0.27100453 49.44189453 0.33251953 C57.45970164 0.40336599 65.47742652 0.45263176 73.49545145 0.49063504 C81.22107882 0.5278707 88.94650842 0.58177489 96.67198181 0.64275742 C99.95408998 0.66829412 103.23615093 0.68778291 106.51832581 0.70230484 C110.38613263 0.72007503 114.25355496 0.75240389 118.12115669 0.79578209 C119.53723298 0.80932701 120.95336731 0.8178971 122.36950493 0.82102013 C136.07423238 0.85710655 136.07423238 0.85710655 141.63867188 4.29638672 C145.2885991 10.86625572 145.38202845 17.90038976 145.63867188 25.29638672 C145.66590332 26.00134277 145.69313477 26.70629883 145.72119141 27.43261719 C145.79922552 29.67891996 145.8487474 31.92410401 145.88867188 34.17138672 C145.92093872 35.22314087 145.92093872 35.22314087 145.95385742 36.29614258 C145.98633855 41.45451385 144.97916811 44.80531519 142.63867188 49.29638672 C137.3990634 54.40164626 132.80866326 54.44169559 125.76757812 54.54248047 C124.20832759 54.5754127 122.64908293 54.60862445 121.08984375 54.64208984 C118.6431879 54.68949518 116.19655696 54.73396072 113.74975586 54.77319336 C111.38045232 54.8130196 109.01161962 54.86452688 106.64257812 54.91748047 C105.91535049 54.92589462 105.18812286 54.93430878 104.43885803 54.94297791 C99.6624905 55.0586077 95.79555184 55.46116172 92.0753265 58.62659079 C87.02220599 64.49973517 88.37057778 75.00897162 88.41835022 82.20753479 C88.41896199 84.12783057 88.41896199 84.12783057 88.41958612 86.0869202 C88.4209289 89.61989446 88.43468852 93.15272576 88.45051777 96.68566072 C88.46537876 100.50367536 88.46849691 104.32170156 88.47294617 108.13973999 C88.48211398 114.7497709 88.49827723 121.3597544 88.51890755 127.96975899 C88.548488 137.53532507 88.56408106 147.10087653 88.57571965 156.66647946 C88.59471683 172.19897233 88.62045984 187.73144488 88.65258789 203.26391602 C88.65450582 204.19279044 88.65642376 205.12166487 88.65839981 206.078687 C88.67995203 216.4447147 88.70312911 226.81073777 88.72808838 237.17675781 C88.73712058 240.93758133 88.746137 244.69840489 88.75512695 248.45922852 C88.75734861 249.38727039 88.75957027 250.31531227 88.76185925 251.27147663 C88.79858656 266.7484401 88.82365649 282.22539816 88.83959669 297.70239681 C88.84992518 307.24369334 88.87032376 316.78486519 88.90371429 326.3261094 C88.92585813 332.8624531 88.937233 339.39875877 88.94014961 345.93513913 C88.94219715 349.70528946 88.94918316 353.47526274 88.9693718 357.24536324 C88.99116514 361.33440915 88.98966174 365.42312009 88.98597717 369.51222229 C88.99607994 370.7006473 89.0061827 371.8890723 89.01659161 373.11351019 C88.98888326 379.54804005 88.51471501 384.49314574 85.63867188 390.29638672 C79.84543075 395.10354425 75.06095029 395.46939513 67.76367188 395.42138672 C67.01279297 395.41727783 66.26191406 395.41316895 65.48828125 395.40893555 C40.84365653 395.16675992 40.84365653 395.16675992 33.20117188 389.48388672 C30.15039339 385.21279684 29.38821686 380.78932477 29.39816284 375.62694645 C29.39403979 373.95914775 29.39403979 373.95914775 29.38983345 372.25765616 C29.39702337 371.04647743 29.40421329 369.83529871 29.41162109 368.5874176 C29.41132338 367.29274392 29.41102566 365.99807023 29.41071892 364.66416401 C29.41012861 361.076881 29.42198625 357.48973082 29.43585873 353.90247858 C29.44861779 350.03125595 29.44974588 346.16002825 29.45220947 342.28878784 C29.457981 335.58212217 29.47085669 328.87550056 29.48834229 322.16885567 C29.51345703 312.46457297 29.5256054 302.7603066 29.53420901 293.05599677 C29.54834238 277.3010715 29.56994508 261.54616677 29.59765625 245.79125977 C29.59931187 244.84846407 29.6009675 243.90566836 29.60267329 242.9343031 C29.61616185 235.28509719 29.63001156 227.63589194 29.64387894 219.98668671 C29.65598337 213.30175302 29.66794445 206.6168191 29.6796875 199.93188477 C29.68134375 198.99054133 29.68300001 198.0491979 29.68470645 197.0793289 C29.7120771 181.38436889 29.73159597 165.68940853 29.74550819 149.99443096 C29.75447056 140.31439953 29.77055064 130.6344292 29.79579782 120.95442628 C29.81264861 114.32228395 29.82243064 107.69015568 29.82664824 101.05799336 C29.82933829 97.23132089 29.83535528 93.40472748 29.85016632 89.57808113 C29.86616284 85.42946377 29.86667551 81.2809875 29.86572266 77.13233948 C29.87291258 75.92339148 29.8801025 74.71444348 29.8875103 73.46886069 C29.87338141 67.74023413 29.84552854 62.63480358 27.63867188 57.29638672 C23.30693874 54.98424505 18.99241208 55.03392469 14.15039062 54.98779297 C12.70702732 54.96262651 11.26366804 54.93722858 9.8203125 54.91162109 C7.57593903 54.88298826 5.33163538 54.85893259 3.0871582 54.84008789 C-16.51790261 54.64388636 -16.51790261 54.64388636 -22.29882812 49.60888672 C-25.94884272 41.66473731 -25.64360625 33.88822725 -25.36132812 25.29638672 C-25.32007813 23.97896484 -25.27882813 22.66154297 -25.23632812 21.30419922 C-24.6067251 8.05630229 -24.6067251 8.05630229 -21.36132812 3.29638672 C-14.69027567 -0.75919936 -7.58404678 -0.08782987 0 0 Z " fill="#FEFEFE" transform="translate(1160.361328125,127.70361328125)"/>
<path d="M0 0 C1.051875 0.7425 2.10375 1.485 3.1875 2.25 C14.5234902 13.3340793 15.92812083 25.42159813 16.17700195 40.61108398 C16.20768604 43.48940094 16.2250677 46.36764809 16.23828125 49.24609375 C16.24235678 50.00329271 16.2464323 50.76049168 16.25063133 51.54063606 C16.27131103 55.53286575 16.28570128 59.52506271 16.29516602 63.51733398 C16.30632037 67.632064 16.3408731 71.74626661 16.38033772 75.86080837 C16.40643876 79.0392407 16.41485094 82.21754422 16.41844749 85.3960743 C16.42331378 86.91394768 16.43492909 88.4318153 16.45348549 89.94958305 C16.4777872 92.06505327 16.47693207 94.17911125 16.4699707 96.29467773 C16.47583694 97.49615952 16.48170319 98.6976413 16.48774719 99.93553162 C15.904097 103.60254928 14.8882297 104.7488888 12 107 C6.71565819 109.08392691 0.2071012 108.22654579 -5.375 108.25 C-7.20417969 108.2809375 -7.20417969 108.2809375 -9.0703125 108.3125 C-10.25109375 108.31765625 -11.431875 108.3228125 -12.6484375 108.328125 C-13.72270996 108.3374707 -14.79698242 108.34681641 -15.90380859 108.35644531 C-20.34735013 107.84488794 -23.74456985 106.34201154 -26.8125 103.0625 C-28.9656774 99.32277084 -29.13359599 95.82346979 -29.18945312 91.56054688 C-29.20617065 90.47261841 -29.22288818 89.38468994 -29.2401123 88.26379395 C-29.25368774 87.09392944 -29.26726318 85.92406494 -29.28125 84.71875 C-29.29965942 83.51311401 -29.31806885 82.30747803 -29.33703613 81.06530762 C-29.41570364 75.90381732 -29.48344151 70.74219607 -29.55224609 65.58056641 C-29.60399813 61.81406261 -29.66123877 58.04766954 -29.71875 54.28125 C-29.73232544 53.1113855 -29.74590088 51.941521 -29.7598877 50.73620605 C-29.77660522 49.64827759 -29.79332275 48.56034912 -29.81054688 47.43945312 C-29.82307495 46.4833313 -29.83560303 45.52720947 -29.84851074 44.54211426 C-29.9867719 42.22197844 -30.34621667 40.22325568 -31 38 C-37.42301988 37.04984913 -43.69893537 36.81685767 -50.1875 36.8125 C-51.64446289 36.79413086 -51.64446289 36.79413086 -53.13085938 36.77539062 C-54.07123047 36.77345703 -55.01160156 36.77152344 -55.98046875 36.76953125 C-57.24733521 36.76336792 -57.24733521 36.76336792 -58.53979492 36.75708008 C-61.3608504 37.03563026 -63.46548879 37.73943933 -66 39 C-69.15367729 44.67661912 -69.14922823 51.28268759 -69.15821838 57.63095093 C-69.16315636 58.37928401 -69.16809434 59.12761708 -69.17318195 59.89862692 C-69.18848632 62.39514368 -69.19689832 64.89163486 -69.20532227 67.38818359 C-69.21490635 69.18215152 -69.22491674 70.97611721 -69.23532104 72.77008057 C-69.26231873 77.63319222 -69.28335607 82.49631353 -69.30332303 87.35945845 C-69.32521431 92.44437887 -69.35258761 97.52926972 -69.37937927 102.61416626 C-69.4292637 112.24001016 -69.47421828 121.86587051 -69.51740164 131.49174654 C-69.56681035 142.45179343 -69.621715 153.41181063 -69.67708123 164.37182879 C-69.79083602 186.91452482 -69.8976892 209.45724934 -70 232 C-66.02254688 232.33580172 -62.04454238 232.66458448 -58.06640625 232.9921875 C-56.94995728 233.08653076 -55.8335083 233.18087402 -54.68322754 233.27807617 C-46.42678588 233.95312163 -38.28564509 234.24250669 -30 234 C-29.96241577 232.32997925 -29.96241577 232.32997925 -29.92407227 230.6262207 C-29.82880152 226.43456505 -29.72888992 222.24302991 -29.62768555 218.05151367 C-29.58478312 216.24880828 -29.54308406 214.44607379 -29.50268555 212.64331055 C-28.79015316 180.96640758 -28.79015316 180.96640758 -25 176 C-19.39918763 172.21991376 -13.59138067 172.38150555 -7.0625 172.1875 C-6.00353516 172.13658203 -4.94457031 172.08566406 -3.85351562 172.03320312 C6.89580662 171.63756369 6.89580662 171.63756369 12 174 C20.07765286 184.19498693 18.27067063 200.01564347 18.125 212.4375 C18.11493151 213.95897836 18.10581262 215.48046331 18.09765625 217.00195312 C18.07599182 220.6681096 18.04168449 224.33400983 18 228 C17.34 228 16.68 228 16 228 C16.03480469 228.82757813 16.06960938 229.65515625 16.10546875 230.5078125 C16.43257407 244.93159934 16.83554056 266.40100831 7.31640625 278.0625 C-4.75894402 289.72481012 -23.83375807 290.44466992 -39.6640625 290.21875 C-54.08209542 289.78134286 -68.52004043 287.62036548 -82.6875 285 C-83.52966064 284.8462793 -84.37182129 284.69255859 -85.23950195 284.53417969 C-92.35011805 283.13508505 -98.66949915 281.18520611 -104 276 C-113.40563679 260.86427586 -114.09552899 245.63335597 -114.51757812 228.26757812 C-114.55173828 227.23181641 -114.58589844 226.19605469 -114.62109375 225.12890625 C-114.65867798 223.72233765 -114.65867798 223.72233765 -114.69702148 222.28735352 C-114.78997897 219.80459899 -114.78997897 219.80459899 -117 218 C-116.34 218 -115.68 218 -115 218 C-115.00515373 217.36688652 -115.01030746 216.73377304 -115.01561737 216.0814743 C-115.14265207 200.46193109 -115.26784739 184.84237427 -115.39115143 169.22280121 C-115.45082901 161.66838375 -115.51107275 154.1139717 -115.57275391 146.55957031 C-116.04730928 88.36528 -116.04730928 88.36528 -116.046875 64.5390625 C-116.04721489 63.3525988 -116.04721489 63.3525988 -116.04756165 62.14216614 C-116.04603902 16.42048102 -116.04603902 16.42048102 -105 5 C-104.49855469 4.45988281 -103.99710938 3.91976562 -103.48046875 3.36328125 C-83.51950064 -15.91775121 -21.79601152 -16.1728396 0 0 Z " fill="#FEFEFC" transform="translate(250,183)"/>
<path d="M0 0 C11.52580199 10.20940329 10.85615179 33.0017707 12.78882217 47.18563271 C13.30601398 50.98113042 13.82882967 54.77581797 14.35299683 58.57035828 C15.36758656 65.92233879 16.37613956 73.2751366 17.38348389 80.62811279 C18.759679 90.67161286 20.13991091 100.71454636 21.52608871 110.75667381 C22.04149644 114.49999887 22.55249924 118.24390812 23.06326294 121.98786926 C23.37677854 124.26448201 23.69047876 126.54106935 24.00439453 128.81762695 C24.14569794 129.86220566 24.28700134 130.90678436 24.43258667 131.98301697 C24.56425232 132.93171661 24.69591797 133.88041626 24.83157349 134.85786438 C24.94474474 135.68458806 25.05791599 136.51131174 25.17451668 137.36308765 C25.4543428 139.4268367 25.4543428 139.4268367 26.5390625 141.36328125 C32.06197237 137.54360461 35.8843578 134.22840927 37.29418945 127.48291016 C37.6395859 125.14892996 37.94377453 122.80861928 38.21484375 120.46484375 C38.49584298 118.47214871 38.776902 116.47946153 39.05977726 114.48703194 C39.36144073 112.31861288 39.64519645 110.14840581 39.92584229 107.97717285 C40.5570663 103.14777327 41.27647731 98.33345097 42.00927734 93.51855469 C43.07160932 86.52123929 44.12003522 79.5222076 45.14648438 72.51953125 C45.27609999 71.63560574 45.4057156 70.75168022 45.53925896 69.84096909 C45.80244508 68.04542056 46.06554254 66.24985904 46.32855225 64.45428467 C47.38831698 57.2224995 48.45270328 49.99139409 49.51781654 42.76039505 C49.8834159 40.27478884 50.24739685 37.78895 50.61112976 35.30307007 C51.14801121 31.63834985 51.69562215 27.97536211 52.24901962 24.31310272 C52.5237993 22.46588853 52.78342132 20.61643812 53.04214478 18.76690674 C53.19879608 17.70896912 53.35544739 16.65103149 53.5168457 15.56103516 C53.70728203 14.21883408 53.70728203 14.21883408 53.90156555 12.84951782 C54.65830162 9.89824896 55.75800995 7.83154812 57.5390625 5.36328125 C64.14367999 1.91411955 70.38498741 1.90755532 77.7265625 1.98828125 C78.79326172 1.97667969 79.85996094 1.96507812 80.95898438 1.953125 C81.98958984 1.95699219 83.02019531 1.96085938 84.08203125 1.96484375 C85.01039795 1.96822754 85.93876465 1.97161133 86.89526367 1.97509766 C90.0829085 2.44313305 91.94508316 3.4749863 94.5390625 5.36328125 C99.48613955 12.78389683 96.00616721 24.89018833 94.859375 33.25390625 C94.68654999 34.55672546 94.51372498 35.85954468 94.33566284 37.20184326 C93.87914097 40.64261356 93.41410768 44.08217887 92.94714355 47.52154541 C92.4791246 50.97982 92.01918897 54.43916778 91.55859375 57.8984375 C90.87690395 63.01133201 90.19095898 68.12363476 89.50048828 73.23535156 C89.26679535 74.98265564 89.26679535 74.98265564 89.02838135 76.76525879 C88.68748822 79.27188844 88.33481847 81.77693277 87.9730835 84.28063965 C87.7897345 85.57473755 87.6063855 86.86883545 87.41748047 88.20214844 C87.16537308 89.93860626 87.16537308 89.93860626 86.90817261 91.71014404 C86.63440924 94.41962045 86.52842706 96.85583223 86.57879543 99.55571938 C86.59473091 104.09069823 86.15730084 108.45080767 85.53422546 112.93740845 C85.42608625 113.75122526 85.31794703 114.56504206 85.20653087 115.40351999 C84.84604947 118.10525313 84.47712715 120.80576214 84.1081543 123.50634766 C83.84651791 125.45368892 83.5853925 127.4010989 83.32473755 129.34857178 C82.61727915 134.62236186 81.90233882 139.89511248 81.1857717 145.16767168 C80.43472633 150.70147876 79.68971531 156.23609867 78.94380188 161.77059937 C77.68947664 171.07013208 76.43029099 180.36899696 75.16821289 189.66748047 C73.71330901 200.38706978 72.2660383 211.10766838 70.82290715 221.82884848 C69.4305845 232.17122419 68.03281577 242.51285698 66.63260841 252.85416794 C66.03882482 257.24028732 65.44691099 261.62665286 64.85654259 266.01323318 C64.15915761 271.19309634 63.4569669 276.37228688 62.75122452 281.55101776 C62.4944365 283.4408685 62.23923075 285.3309351 61.98581505 287.221241 C60.83560758 295.7940502 59.64562919 304.35515516 58.05036926 312.85824585 C57.83217435 314.02428534 57.61397943 315.19032482 57.38917255 316.39169884 C56.52319424 319.41874917 55.73205426 321.12398409 53.5390625 323.36328125 C48.17245336 325.1564178 43.14922459 325.67156513 37.49609375 325.6640625 C36.76460617 325.66834763 36.03311859 325.67263275 35.27946472 325.67704773 C33.74759957 325.68274475 32.2157074 325.68332584 30.68383789 325.67895508 C28.34670204 325.67577464 26.01080995 325.69938045 23.67382812 325.72460938 C22.17708492 325.72688091 20.68033833 325.72758654 19.18359375 325.7265625 C18.49078812 325.73577225 17.79798248 325.74498199 17.08418274 325.75447083 C12.7201378 325.71293919 9.94929815 325.12545532 6.5390625 322.36328125 C3.77577288 318.49970219 2.97649148 315.27269111 2.37426758 310.59082031 C2.28482313 309.92282158 2.19537868 309.25482285 2.1032238 308.56658173 C1.80712669 306.33858768 1.52687675 304.10887762 1.24609375 301.87890625 C1.03608413 300.2807776 0.82477328 298.68281948 0.61225891 297.08502197 C0.15585972 293.64908659 -0.29560064 290.21254861 -0.74456787 286.77563477 C-1.83384196 278.48925974 -3.00963611 270.21492358 -4.17499161 261.9389801 C-4.84347494 257.18134359 -5.50460294 252.42268628 -6.16601562 247.6640625 C-6.97709072 241.8288212 -7.78954844 235.99378976 -8.60864258 230.15966797 C-9.28700987 225.32721616 -9.96006494 220.49405143 -10.62944603 215.66034698 C-10.88151235 213.84690224 -11.13545863 212.03371767 -11.39141273 210.22081757 C-11.7455924 207.710062 -12.09293531 205.19844689 -12.4387207 202.68652344 C-12.54307434 201.95832901 -12.64742798 201.23013458 -12.75494385 200.47987366 C-13.29878028 196.47116498 -13.45264064 192.65216713 -13.4009676 188.59793854 C-13.53057265 183.76846814 -14.34835447 178.99220498 -15.03393555 174.21630859 C-15.20146835 173.0179689 -15.36900116 171.81962921 -15.54161072 170.5849762 C-15.90580447 167.98581469 -16.27197303 165.38702651 -16.6416378 162.7886467 C-17.23234571 158.6365199 -17.81531489 154.48332753 -18.39741516 150.32998657 C-19.32572078 143.71317445 -20.25933375 137.09712346 -21.19511491 130.48136485 C-22.84945117 118.78433757 -24.49461952 107.08601783 -26.13864338 95.38753724 C-26.63554874 91.85205723 -27.133001 88.31665585 -27.63167953 84.78142548 C-29.50345979 71.51130721 -31.37229266 58.241543 -33.08837891 44.95019531 C-33.20649461 44.03685488 -33.32461031 43.12351444 -33.44630527 42.18249702 C-33.96836406 38.13014983 -34.48214018 34.07701242 -34.98161316 30.02182007 C-35.15411308 28.65728108 -35.32666091 27.29274815 -35.49926758 25.92822266 C-35.6389949 24.79011139 -35.77872223 23.65200012 -35.92268372 22.47940063 C-36.47382304 19.28868285 -37.38566449 16.41232132 -38.4609375 13.36328125 C-39.06727965 9.46436019 -38.83560987 6.20629408 -37.2109375 2.55078125 C-28.83931977 -4.10846013 -9.29490736 -5.95774899 0 0 Z " fill="#FEFEFE" transform="translate(1426.4609375,160.63671875)"/>
<path d="M0 0 C0.80099813 -0.00282738 1.60199627 -0.00565475 2.42726707 -0.00856781 C6.65406997 -0.0234572 10.88083954 -0.0327552 15.10766602 -0.03710938 C19.46323824 -0.0426247 23.81850271 -0.06674559 28.17397785 -0.09508133 C31.53774422 -0.11370363 34.90143569 -0.11891276 38.26524925 -0.12044525 C39.87159116 -0.12346578 41.47793193 -0.13147406 43.08422279 -0.14463043 C45.3263284 -0.16170672 47.56767002 -0.15980895 49.80981445 -0.15332031 C51.0831514 -0.15696594 52.35648834 -0.16061157 53.66841125 -0.16436768 C57.26600149 0.23107548 59.14858711 1.03078744 62.01171875 3.203125 C66.32287987 11.82544724 65.24179096 28.23881678 62.7421875 37.3984375 C61.42717371 40.6472951 60.15548829 41.63124023 57.01171875 43.203125 C48.19408353 45.32178119 39.40506343 45.48356365 30.3828125 45.4765625 C29.01708544 45.48514499 27.65136667 45.49515193 26.28565979 45.50650024 C20.54651434 45.55229382 14.807438 45.57742917 9.06811523 45.58398438 C5.53328677 45.58899068 1.9990132 45.61316429 -1.53562737 45.64931107 C-3.52480221 45.66384416 -5.51409813 45.65647555 -7.50331116 45.64877319 C-8.70563889 45.66203644 -9.90796661 45.67529968 -11.14672852 45.68896484 C-12.20529556 45.69181488 -13.26386261 45.69466492 -14.35450745 45.69760132 C-17.09315449 45.96959616 -17.09315449 45.96959616 -18.82139587 48.0194397 C-20.49288297 51.14742629 -20.51274536 53.93154982 -20.67578125 57.453125 C-20.74152344 58.71640625 -20.80726562 59.9796875 -20.875 61.28125 C-20.91238281 62.24546875 -20.94976563 63.2096875 -20.98828125 64.203125 C-19.66376953 64.18572266 -19.66376953 64.18572266 -18.3125 64.16796875 C-10.80257934 64.11150318 -3.45077996 64.350268 4.01171875 65.203125 C4.01171875 65.533125 4.01171875 65.863125 4.01171875 66.203125 C-4.05178238 66.33179789 -11.96325781 65.99993584 -19.98828125 65.203125 C-19.82980713 66.25435547 -19.67133301 67.30558594 -19.50805664 68.38867188 C-18.77040604 74.32107595 -18.7561818 80.263452 -18.671875 86.234375 C-18.6510939 87.46603394 -18.63031281 88.69769287 -18.60890198 89.9666748 C-18.54381937 93.87877126 -18.48471432 97.79093156 -18.42578125 101.703125 C-18.38304226 104.36459845 -18.33894123 107.02604717 -18.29492188 109.6875 C-18.18818056 116.19264198 -18.08633946 122.69784665 -17.98828125 129.203125 C-16.87308105 129.2532373 -15.75788086 129.30334961 -14.60888672 129.35498047 C-1.73362816 129.93685751 11.13959985 130.55556806 24.01171875 131.203125 C24.83712158 131.24415344 25.66252441 131.28518188 26.51293945 131.32745361 C31.47241805 131.57532528 36.42956944 131.8498338 41.38671875 132.140625 C42.61922363 132.2029834 43.85172852 132.2653418 45.12158203 132.32958984 C46.24806152 132.40000488 47.37454102 132.47041992 48.53515625 132.54296875 C49.50372559 132.59831787 50.47229492 132.65366699 51.47021484 132.71069336 C54.53226685 133.30398432 55.92615985 133.86330347 58.01171875 136.203125 C58.46582031 139.29760742 58.46582031 139.29760742 58.40234375 143.05859375 C58.39668396 143.72023026 58.39102417 144.38186676 58.38519287 145.06355286 C58.36283122 147.17331832 58.31264246 149.28137452 58.26171875 151.390625 C58.24165315 152.82224106 58.22340247 154.2538838 58.20703125 155.68554688 C58.16296944 159.19196015 58.09394652 162.69737572 58.01171875 166.203125 C55.05981685 167.67907595 52.41008189 167.34420207 49.11523438 167.36083984 C48.40614426 167.36592056 47.69705414 167.37100128 46.96647644 167.37623596 C45.42502584 167.38694489 43.88355963 167.39556302 42.34208679 167.40235519 C39.90493581 167.41412544 37.46796354 167.43357172 35.03088379 167.45547485 C28.10121567 167.51716531 21.17156661 167.57121185 14.24169922 167.60449219 C10.00525606 167.62538762 5.76913967 167.66064606 1.53288269 167.70524979 C-0.08425563 167.71944827 -1.70145174 167.72814087 -3.31864929 167.73130417 C-5.57671538 167.73618975 -7.83390719 167.75928354 -10.09179688 167.78662109 C-12.02134216 167.79875137 -12.02134216 167.79875137 -13.98986816 167.81112671 C-14.97934448 167.94048615 -15.9688208 168.06984558 -16.98828125 168.203125 C-19.44363659 171.886158 -19.27716482 174.67157706 -19.26293945 178.93164062 C-19.26805038 179.71729904 -19.27316132 180.50295746 -19.27842712 181.31242371 C-19.29233644 183.91148478 -19.29136556 186.51028112 -19.2890625 189.109375 C-19.29294832 190.91394144 -19.29728275 192.71850696 -19.30204773 194.52307129 C-19.30951254 198.30593836 -19.3092165 202.08871211 -19.30395508 205.87158203 C-19.29815602 210.72416997 -19.31510062 215.57637678 -19.33829975 220.42890167 C-19.35301526 224.15547934 -19.35391185 227.88196471 -19.35079002 231.60856628 C-19.3513042 233.39797217 -19.35656001 235.18738309 -19.36660194 236.97676086 C-19.37890876 239.47629752 -19.37221007 241.97508514 -19.3605957 244.47460938 C-19.37206131 245.58747566 -19.37206131 245.58747566 -19.38375854 246.7228241 C-19.35520188 249.49667505 -19.28493374 251.67839984 -17.9025116 254.12365723 C-13.27462987 256.73340019 -7.57251144 256.32351348 -2.39794922 256.28491211 C-1.13328827 256.2783812 0.13137268 256.27185028 1.43435669 256.26512146 C2.10002781 256.25938047 2.76569893 256.25363949 3.4515419 256.24772453 C5.55379182 256.23018287 7.65596423 256.21998842 9.75827026 256.21180725 C15.73068551 256.18747939 21.70299517 256.15172072 27.67529297 256.10717773 C31.34027297 256.08035257 35.00519386 256.06334038 38.67025375 256.05230904 C40.06168693 256.04611815 41.45310878 256.03613658 42.84448624 256.02223015 C44.78964672 256.00294852 46.73492675 255.99716646 48.68017578 255.99194336 C50.33728073 255.98075722 50.33728073 255.98075722 52.02786255 255.96934509 C55.85675125 256.26933182 58.73551125 257.20039054 61.76171875 259.578125 C65.70523989 264.70470248 64.2371393 273.00085513 64.26171875 279.078125 C64.29265625 280.97884766 64.29265625 280.97884766 64.32421875 282.91796875 C64.33195312 284.75681641 64.33195312 284.75681641 64.33984375 286.6328125 C64.34918945 287.74897949 64.35853516 288.86514648 64.36816406 290.01513672 C63.95770646 293.68620202 62.93110431 296.06184792 61.01171875 299.203125 C54.78061223 303.30999066 47.85329903 303.32373323 40.58618164 303.38012695 C39.87934235 303.38669815 39.17250305 303.39326935 38.44424438 303.40003967 C36.12428645 303.41961061 33.80439296 303.43140311 31.484375 303.44140625 C30.68332273 303.44548178 29.88227047 303.4495573 29.05694389 303.45375633 C24.8109959 303.47455524 20.56507956 303.4888796 16.3190918 303.49829102 C11.97899116 303.50930086 7.6394109 303.54365517 3.29949284 303.58346272 C-0.07673455 303.60987662 -3.45284294 303.61800485 -6.82916451 303.62157249 C-8.42643279 303.62638028 -10.02369793 303.63782333 -11.62086296 303.65661049 C-27.88919525 303.83597538 -42.21845231 301.89835903 -54.75 290.6171875 C-72.51564347 272.26979751 -67.15037158 233.0990986 -67.06344604 209.83881378 C-67.05032162 206.28167629 -67.04407687 202.72457746 -67.03930664 199.16741943 C-67.02614912 190.33113588 -67.00206786 181.49488952 -66.97790527 172.65863037 C-66.81933886 135.48201571 -66.81933886 135.48201571 -67.42578125 98.3125 C-67.45525345 97.23600567 -67.45525345 97.23600567 -67.48532104 96.13776398 C-67.71361325 88.12626267 -68.1424279 80.17412519 -68.98828125 72.203125 C-70.63828125 72.203125 -72.28828125 72.203125 -73.98828125 72.203125 C-71.34089209 70.7424965 -70.09379791 70.203125 -66.98828125 70.203125 C-66.99988281 69.64367187 -67.01148438 69.08421875 -67.0234375 68.5078125 C-67.25019723 48.35859083 -64.88185675 28.69193349 -50.5078125 13.53125 C-35.79931272 -0.05985987 -18.88575376 0.04523704 0 0 Z " fill="#FCFEFE" transform="translate(1612.98828125,182.796875)"/>
<path d="M0 0 C1.20629059 -0.0049926 1.20629059 -0.0049926 2.43695068 -0.01008606 C4.14171781 -0.01515424 5.84649488 -0.01749442 7.55126953 -0.01733398 C10.14763001 -0.01951092 12.74355902 -0.03764101 15.33984375 -0.05664062 C16.99739438 -0.05957656 18.65494703 -0.06156002 20.3125 -0.0625 C21.47063202 -0.07327827 21.47063202 -0.07327827 22.65216064 -0.08427429 C23.3860199 -0.08119766 24.11987915 -0.07812103 24.87597656 -0.07495117 C25.83289398 -0.0770887 25.83289398 -0.0770887 26.80914307 -0.07926941 C29.66389183 0.25480176 32.21035263 1.23712305 34.921875 2.16796875 C35.05009571 39.30611786 35.17756419 76.44426948 35.30405727 113.58242452 C35.31907324 117.99090347 35.33409529 122.39938241 35.34912109 126.80786133 C35.35211171 127.68531919 35.35510232 128.56277705 35.35818356 129.46682454 C35.40629333 143.57818781 35.45489255 157.68954935 35.50368041 171.80091029 C35.55392363 186.33645602 35.60362291 200.87200354 35.65284204 215.40755278 C35.68042262 223.54831894 35.70824138 231.68908412 35.73667908 239.82984734 C35.79265195 255.88476731 35.84610465 271.93968581 35.88997698 287.99464399 C35.90919105 294.99708793 35.93201763 301.99949867 35.95942545 309.00191516 C35.97335522 312.82369611 35.98305169 316.64547765 35.99126339 320.46727479 C35.99565893 322.13515735 36.00175968 323.80303664 36.00988865 325.47090518 C36.0573266 335.414365 35.72136223 345.25489942 34.921875 355.16796875 C21.78079689 359.07204576 2.85975004 360.46426573 -10.078125 355.16796875 C-12.63146447 351.05724544 -13.45338493 347.90773273 -13.45564842 343.1053009 C-13.46347166 341.90573352 -13.47129491 340.70616613 -13.47935522 339.47024822 C-13.46931697 337.5065464 -13.46931697 337.5065464 -13.45907593 335.50317383 C-13.46253377 334.09158625 -13.46729919 332.68000137 -13.47325766 331.26842213 C-13.48578 327.39415005 -13.47959172 323.52009969 -13.47029901 319.64582682 C-13.4635139 315.46580408 -13.47398707 311.28581959 -13.48223877 307.10580444 C-13.49558404 298.91899734 -13.49269483 290.73227271 -13.48400085 282.54546237 C-13.47722784 275.89233139 -13.47630592 269.23922353 -13.4795723 262.58609009 C-13.480032 261.63946182 -13.48049169 260.69283355 -13.48096532 259.71751958 C-13.48192449 257.79450917 -13.48289713 255.87149876 -13.4838831 253.94848835 C-13.49243932 235.91312267 -13.48259922 217.87780272 -13.466482 199.84244454 C-13.45307861 184.36466668 -13.45540664 168.88695633 -13.46923828 153.40917969 C-13.48528999 135.43869128 -13.49161532 117.46824295 -13.48240149 99.49774837 C-13.48144583 97.58178139 -13.48050272 95.66581441 -13.4795723 93.74984741 C-13.47887806 92.33578014 -13.47887806 92.33578014 -13.47816979 90.89314586 C-13.47557868 84.2474085 -13.47995352 77.60169656 -13.48701096 70.95596313 C-13.4954216 62.85788608 -13.49315498 54.75989628 -13.47716872 46.66182923 C-13.46928014 42.52945163 -13.46620439 38.39721954 -13.47611618 34.26484299 C-13.48505147 30.48240203 -13.48014962 26.70024155 -13.46418352 22.91782606 C-13.45924173 20.90044684 -13.46904268 18.88304818 -13.47935522 16.86568928 C-13.47153197 15.66612189 -13.46370873 14.46655451 -13.45564842 13.2306366 C-13.45516137 12.19725253 -13.45467431 11.16386847 -13.45417249 10.09916973 C-13.00525371 6.59995436 -11.87892419 4.18569081 -10.078125 1.16796875 C-6.90559248 -0.41829751 -3.48400767 0.00496944 0 0 Z " fill="#FEFEFE" transform="translate(1331.078125,144.83203125)"/>
<path d="M0 0 C2.62787513 1.86744502 4.81504974 4.13924877 7.06640625 6.4375 C8.07851418 7.44598999 8.07851418 7.44598999 9.11106873 8.47485352 C10.5434165 9.90818186 11.96954226 11.34775067 13.38989258 12.79296875 C15.51512857 14.95187799 17.66255453 17.08645698 19.81445312 19.21875 C50.8636374 50.30125561 50.8636374 50.30125561 51.03125 69.59765625 C50.54175038 87.40374653 44.67304671 101.45539633 32 114 C21.39150896 123.79574374 7.29974545 127.45956094 -6.875 126.9375 C-18.70083519 125.80190655 -28.87116027 121.54979718 -38 114 C-38.62261719 113.50113281 -39.24523437 113.00226563 -39.88671875 112.48828125 C-49.82370782 103.62314718 -56.08104579 89.16193157 -57.16015625 76.0546875 C-57.8763816 58.67843775 -48.81574888 45.52219781 -37.60546875 33.26953125 C-30.99909356 26.12668552 -24.23101401 19.16207154 -17.30664062 12.32788086 C-14.51606506 9.56237824 -11.83915767 6.75879766 -9.3125 3.75 C-6.32583069 0.19828514 -4.60208581 -0.75950172 0 0 Z " fill="#FEFEFE" transform="translate(891,354)"/>
<path d="M0 0 C14.64740258 -0.66757599 28.30351138 3.98239254 39.4140625 13.4296875 C48.38730812 21.85952228 55.40589293 32.76596912 56.46606445 45.34179688 C56.91795218 61.89060941 55.0712674 75.35379092 43.52734375 88.203125 C42.41447468 89.30849158 41.28388271 90.39646529 40.13183594 91.4609375 C38.31620535 93.21595085 36.69759911 95.04242151 35.06640625 96.96875 C31.38441346 101.21019925 27.44917978 105.09286361 23.3515625 108.9296875 C22.35479492 109.88584961 22.35479492 109.88584961 21.33789062 110.86132812 C15.9918423 115.88588761 10.72554801 120.64216622 3.3515625 121.9296875 C-6.70414085 121.12682488 -14.88308405 110.53225482 -21.54101562 103.80322266 C-23.32883927 101.99934945 -25.13209698 100.21204052 -26.9375 98.42578125 C-39.78574425 85.60216006 -50.5688887 71.7787753 -50.7421875 52.82421875 C-50.04301685 36.79573155 -43.27860654 23.67490275 -31.71484375 12.60546875 C-22.39574013 5.27379425 -11.74438898 1.04921054 0 0 Z " fill="#FEFEFE" transform="translate(884.7109375,171.7578125)"/>
<path d="M0 0 C5.22327952 -0.19148479 10.8755972 0.26553072 15.79296875 2.1171875 C20.03683128 6.75382286 19.9497696 11.40118366 19.9699707 17.39648438 C19.9798275 18.66275414 19.9798275 18.66275414 19.98988342 19.9546051 C20.00959731 22.74838345 20.02127193 25.54210822 20.03125 28.3359375 C20.03532553 29.28927475 20.03940105 30.242612 20.04360008 31.22483826 C20.06444808 36.26626366 20.07875789 41.30766192 20.08813477 46.34912109 C20.09922428 51.56495724 20.13365691 56.78036969 20.17330647 61.9960556 C20.19939407 66.00055762 20.20781936 70.00495721 20.21141624 74.00953674 C20.21629898 75.93293637 20.22796061 77.85633092 20.24645424 79.77964783 C20.27068936 82.46607601 20.26991014 85.15138761 20.26293945 87.83789062 C20.27574951 88.63590591 20.28855957 89.4339212 20.30175781 90.25611877 C20.25091001 95.61504971 20.25091001 95.61504971 17.99137878 98.09265137 C12.03085288 100.87046536 4.57011818 100.32636888 -1.89453125 100.3671875 C-2.72275391 100.3878125 -3.55097656 100.4084375 -4.40429688 100.4296875 C-9.17796127 100.46026341 -12.32834657 100.22165332 -16.20703125 97.1171875 C-19.7745823 91.94423848 -19.36450232 85.12934639 -19.39990234 79.07983398 C-19.40807983 78.29695007 -19.41625732 77.51406616 -19.42468262 76.7074585 C-19.44935971 74.13440695 -19.46600009 71.56140959 -19.48046875 68.98828125 C-19.48579243 68.10638689 -19.4911161 67.22449253 -19.4966011 66.3158741 C-19.52324593 61.6546834 -19.5426549 56.99351878 -19.55712891 52.33227539 C-19.57050377 48.47852025 -19.59843344 44.62529013 -19.63916016 40.77172852 C-19.68842336 36.10930432 -19.71324041 31.44735848 -19.72035599 26.78468513 C-19.72707098 25.01084216 -19.74229957 23.23700999 -19.7662468 21.46331596 C-19.79784073 18.98335679 -19.79794554 16.50525377 -19.79052734 14.02514648 C-19.80693268 13.29513931 -19.82333801 12.56513214 -19.84024048 11.81300354 C-19.79246414 7.90893614 -19.31738691 6.25516598 -16.8475647 3.16712952 C-13.79590292 0.79801364 -12.21465611 0.43986885 -8.39453125 0.3046875 C-7.33878906 0.26085937 -6.28304688 0.21703125 -5.1953125 0.171875 C-3.46288433 0.14017043 -1.73028086 0.09187332 0 0 Z " fill="#F8F800" transform="translate(363.20703125,212.8828125)"/>
<path d="M0 0 C-0.54479018 8.75965262 -1.54107999 17.34562983 -3 26 C-3.66 26 -4.32 26 -5 26 C-5.53384694 23.46045692 -6.05230194 20.9193065 -6.5625 18.375 C-6.71396484 17.66214844 -6.86542969 16.94929688 -7.02148438 16.21484375 C-7.87741121 11.87549373 -8.22980509 8.34962644 -7 4 C-2.89473684 0 -2.89473684 0 0 0 Z " fill="#0BDBF7" transform="translate(1461,297)"/>
<path d="M0 0 C0.66 0 1.32 0 2 0 C0.46356148 3.68069887 -1.78150945 5.98775204 -4.625 8.75 C-5.85089844 9.94882813 -5.85089844 9.94882813 -7.1015625 11.171875 C-7.72804688 11.77515625 -8.35453125 12.3784375 -9 13 C-9.66 12.67 -10.32 12.34 -11 12 C-9.21479439 9.99388266 -7.42241288 7.9951283 -5.625 6 C-5.11710937 5.42765625 -4.60921875 4.8553125 -4.0859375 4.265625 C-2.76495095 2.80558723 -1.38599201 1.39847843 0 0 Z " fill="#FBFA62" transform="translate(72,62)"/>
</svg>
